<?xml version="1.0" encoding="utf-8"?>
<!-- Generator: Adobe Illustrator 24.2.1, SVG Export Plug-In . SVG Version: 6.00 Build 0)  -->
<svg version="1.1" id="Layer_4" xmlns="http://www.w3.org/2000/svg" xmlns:xlink="http://www.w3.org/1999/xlink" x="0px" y="0px"
	 viewBox="0 0 100 100" style="enable-background:new 0 0 100 100;" xml:space="preserve">
<style type="text/css">
	.st0{fill:#333333;}
</style>
<g>
	<path class="st0" d="M83.4,66.1c-5.4-4.7-8.6-11.4-8.6-18.5V37.6c0-12.7-9.3-23.1-21.5-24.8V8.8c0-2.1-1.7-3.5-3.5-3.5
		c-2.1,0-3.5,1.7-3.5,3.5v3.9c-12.1,1.7-21.5,12.1-21.5,24.8v10.1c0,7.1-3.2,13.8-8.6,18.5c-1.3,1.1-2.2,3-2.2,4.9
		c0,3.5,2.8,6.3,6.3,6.3h59.2c3.5,0,6.3-2.8,6.3-6.3C85.4,69.1,84.7,67.4,83.4,66.1z"/>
	<path class="st0" d="M49.6,91.5c6.5,0,11.9-4.7,13.3-10.8H36.5C37.6,87,43,91.5,49.6,91.5z"/>
</g>
</svg>
