<?xml version="1.0" encoding="utf-8"?>
<!-- Generator: Adobe Illustrator 24.2.1, SVG Export Plug-In . SVG Version: 6.00 Build 0)  -->
<svg version="1.1" id="레이어_1" xmlns="http://www.w3.org/2000/svg" xmlns:xlink="http://www.w3.org/1999/xlink" x="0px"
	 y="0px" viewBox="0 0 100 100" style="enable-background:new 0 0 100 100;" xml:space="preserve">
<style type="text/css">
	.st0{fill:#333333;}
</style>
<path class="st0" d="M63.9,30.6H36.1c-5.3,0-9.7,4.3-9.7,9.7v14.9c0,4.3,2.8,8,6.8,9.1l4.7,4.7c0.3,0.3,0.6,0.4,1,0.4
	c0.4,0,0.7-0.1,1-0.4l4.3-4.3h19.7c5.3,0,9.7-4.3,9.7-9.7V40.3C73.6,34.9,69.2,30.6,63.9,30.6z M39.8,50.1c0-0.8,0.6-1.4,1.4-1.4
	h17.5c0.8,0,1.4,0.6,1.4,1.4s-0.6,1.4-1.4,1.4H41.2C40.5,51.5,39.8,50.9,39.8,50.1z M58.8,46.6H41.2c-0.8,0-1.4-0.6-1.4-1.4
	c0-0.8,0.6-1.4,1.4-1.4h17.5c0.8,0,1.4,0.6,1.4,1.4C60.2,46,59.5,46.6,58.8,46.6z"/>
</svg>
