<?xml version="1.0" encoding="utf-8"?>
<!-- Generator: Adobe Illustrator 24.2.1, SVG Export Plug-In . SVG Version: 6.00 Build 0)  -->
<svg version="1.1" id="Capa_1" xmlns="http://www.w3.org/2000/svg" xmlns:xlink="http://www.w3.org/1999/xlink" x="0px" y="0px"
	 viewBox="0 0 100 100" style="enable-background:new 0 0 100 100;" xml:space="preserve">
<style type="text/css">
	.st0{fill:#3A62FF;}
	.st1{fill:#FFFFFF;}
</style>
<g>
	<path class="st0" d="M100,98c0,1.1-0.9,2-2,2H2c-1.1,0-2-0.9-2-2V2c0-1.1,0.9-2,2-2h96c1.1,0,2,0.9,2,2V98z"/>
</g>
<g>
	<path class="st1" d="M47.6,63.8L26.8,43c-1.3-1.3-1.3-3.5,0-4.8c1.3-1.3,3.5-1.3,4.8,0L50,56.6l18.4-18.4c1.3-1.3,3.5-1.3,4.8,0
		s1.3,3.5,0,4.8L52.4,63.8c-0.7,0.7-1.5,1-2.4,1S48.3,64.5,47.6,63.8z"/>
</g>
</svg>
