<?xml version="1.0" encoding="utf-8"?>
<!-- Generator: Adobe Illustrator 24.2.1, SVG Export Plug-In . SVG Version: 6.00 Build 0)  -->
<svg version="1.1" id="Capa_1" xmlns="http://www.w3.org/2000/svg" xmlns:xlink="http://www.w3.org/1999/xlink" x="0px" y="0px"
	 viewBox="0 0 100 100" style="enable-background:new 0 0 100 100;" xml:space="preserve">
<style type="text/css">
	.st0{fill:#333333;}
</style>
<g>
	<path class="st0" d="M53.8,48c0,0.9-0.3,1.7-1,2.4L32,71.2c-1.3,1.3-3.5,1.3-4.8,0c-1.3-1.3-1.3-3.5,0-4.8L45.6,48L27.2,29.6
		c-1.3-1.3-1.3-3.5,0-4.8c1.3-1.3,3.5-1.3,4.8,0l20.8,20.8C53.5,46.3,53.8,47.1,53.8,48z"/>
</g>
<g>
	<path class="st0" d="M74.8,48c0,0.9-0.3,1.7-1,2.4L53,71.2c-1.3,1.3-3.5,1.3-4.8,0c-1.3-1.3-1.3-3.5,0-4.8L66.6,48L48.2,29.6
		c-1.3-1.3-1.3-3.5,0-4.8c1.3-1.3,3.5-1.3,4.8,0l20.8,20.8C74.5,46.3,74.8,47.1,74.8,48z"/>
</g>
</svg>
