<svg width="13" height="15" viewBox="0 0 13 15" fill="none" xmlns="http://www.w3.org/2000/svg">
<path d="M11.8039 2.39709H10.8959V0.544794C10.8864 0.247924 10.648 0.00943459 10.3511 0H1.74334C0.780517 0 0 0.780517 0 1.74334V13.2567C0 14.2195 0.780517 15 1.74334 15H11.8039C12.1048 15 12.3487 14.7561 12.3487 14.4552V2.94189C12.3487 2.64101 12.1048 2.39709 11.8039 2.39709ZM6.31961 8.19007L5.01211 7.11864C4.83338 7.01093 4.60972 7.01093 4.43099 7.11864L3.12349 8.19007V3.48668H6.31961V8.19007ZM9.80629 2.39709H1.74334C1.38227 2.39709 1.08959 2.10441 1.08959 1.74334C1.08959 1.38227 1.38227 1.08959 1.74334 1.08959H9.80629V2.39709Z" fill="#595959"/>
</svg>
