<svg width="13" height="11" viewBox="0 0 13 11" fill="none" xmlns="http://www.w3.org/2000/svg">
<path d="M10.334 0H2.66602C1.19594 0 0 1.22894 0 2.73958V6.97084C0 8.17624 0.770149 9.2261 1.88615 9.56213L3.17373 10.8853C3.24524 10.9587 3.34204 11 3.44311 11C3.54408 11 3.64098 10.9587 3.71239 10.8853L4.89355 9.67149H10.334C11.8041 9.67149 13 8.44255 13 6.93191V2.73958C13 1.22894 11.8041 0 10.334 0ZM3.70088 5.52747C3.70088 5.3113 3.87138 5.1361 4.08174 5.1361H8.91826C9.12862 5.1361 9.29912 5.3113 9.29912 5.52747C9.29912 5.74364 9.12862 5.91884 8.91826 5.91884H4.08174C3.87138 5.91884 3.70088 5.74364 3.70088 5.52747ZM8.91826 4.53539H4.08174C3.87138 4.53539 3.70088 4.36019 3.70088 4.14402C3.70088 3.92795 3.87138 3.75265 4.08174 3.75265H8.91826C9.12862 3.75265 9.29912 3.92795 9.29912 4.14402C9.29912 4.36019 9.12862 4.53539 8.91826 4.53539Z" fill="#595959"/>
</svg>
