<?xml version="1.0" encoding="utf-8"?>
<!-- Generator: Adobe Illustrator 24.2.1, SVG Export Plug-In . SVG Version: 6.00 Build 0)  -->
<svg version="1.1" id="Capa_1" xmlns="http://www.w3.org/2000/svg" xmlns:xlink="http://www.w3.org/1999/xlink" x="0px" y="0px"
	 viewBox="0 0 100 100" style="enable-background:new 0 0 100 100;" xml:space="preserve">
<style type="text/css">
	.st0{fill:#333333;}
</style>
<g>
	<path class="st0" d="M46.6,67.6c4.3,0,8.3-1.3,11.6-3.5l12,12c0.9,0.9,2.5,0.9,3.5,0l2.3-2.3c0.9-0.9,0.9-2.5,0-3.5l-12.1-12
		c2.2-3.3,3.5-7.3,3.5-11.6c0-11.5-9.4-20.9-20.9-20.9s-20.9,9.4-20.9,20.9C25.7,58.2,35.1,67.6,46.6,67.6z M46.6,33.9
		c7,0,12.7,5.7,12.7,12.7s-5.7,12.7-12.7,12.7s-12.7-5.7-12.7-12.7S39.6,33.9,46.6,33.9z"/>
</g>
</svg>
