<?xml version="1.0" encoding="utf-8"?>
<!-- Generator: Adobe Illustrator 24.2.1, SVG Export Plug-In . SVG Version: 6.00 Build 0)  -->
<svg version="1.1" id="Layer_1" xmlns="http://www.w3.org/2000/svg" xmlns:xlink="http://www.w3.org/1999/xlink" x="0px" y="0px"
	 viewBox="0 0 100 100" style="enable-background:new 0 0 100 100;" xml:space="preserve">
<style type="text/css">
	.st0{fill:#333333;}
</style>
<g>
	<g>
		<path class="st0" d="M72.8,55.3l-4.5-3.5c0.1-0.5,0.1-1.2,0.1-1.8c0-0.7,0-1.3-0.1-1.8l4.5-3.5c0.8-0.7,1.1-1.8,0.5-2.8l-4.6-8
			c-0.5-0.9-1.6-1.4-2.7-1L60.8,35c-1-0.7-2.1-1.3-3.2-1.8l-0.8-5.6c-0.1-1.1-1.1-1.9-2.1-1.9h-9.3c-1.1,0-2,0.8-2.1,1.8l-0.8,5.6
			c-1.1,0.5-2.1,1.1-3.2,1.8L34,32.9c-1-0.4-2.2,0-2.7,0.9l-4.7,8c-0.5,0.9-0.3,2.1,0.5,2.8l4.5,3.5c-0.1,0.7-0.1,1.3-0.1,1.8
			s0,1.2,0.1,1.8l-4.5,3.5c-0.8,0.7-1.1,1.8-0.5,2.8l4.6,8c0.5,0.9,1.6,1.4,2.7,1l5.3-2.1c1,0.7,2.1,1.3,3.2,1.8l0.8,5.6
			c0.1,1.1,1.1,1.9,2.1,1.9h9.3c1.1,0,2-0.8,2.1-1.8l0.8-5.6c1.1-0.5,2.1-1.1,3.2-1.8l5.3,2.1c0.3,0.1,0.5,0.1,0.8,0.1
			c0.8,0,1.5-0.4,1.9-1.1l4.7-8.1C73.9,57.2,73.7,56,72.8,55.3z M50,58.1c-4.5,0-8.1-3.6-8.1-8.1s3.6-8.1,8.1-8.1s8.1,3.6,8.1,8.1
			S54.5,58.1,50,58.1z"/>
	</g>
</g>
</svg>
