<?xml version="1.0" encoding="utf-8"?>
<!-- Generator: Adobe Illustrator 24.2.1, SVG Export Plug-In . SVG Version: 6.00 Build 0)  -->
<svg version="1.1" id="Layer_1" xmlns="http://www.w3.org/2000/svg" xmlns:xlink="http://www.w3.org/1999/xlink" x="0px" y="0px"
	 viewBox="0 0 100 100" style="enable-background:new 0 0 100 100;" xml:space="preserve">
<style type="text/css">
	.st0{fill:#333333;}
</style>
<g>
	<g>
		<path class="st0" d="M37.4,29.1h-4c-3.2,0-5.8,2.6-5.8,5.8v29.7c0,3.2,2.6,5.8,5.8,5.8h33.2c3.2,0,5.8-2.6,5.8-5.8V34.8
			c0-3.2-2.6-5.8-5.8-5.8h-4 M59.8,28.1H40.2 M67.3,62.4c0,1.5-1.2,2.6-2.6,2.6H35.3c-1.5,0-2.6-1.2-2.6-2.6V41.9
			c0-0.2,0.2-0.4,0.4-0.4h33.9c0.2,0,0.4,0.2,0.4,0.4V62.4z"/>
	</g>
	<rect x="36.7" y="24.7" class="st0" width="4.8" height="4.8"/>
	<rect x="57.7" y="24.7" class="st0" width="4.8" height="4.8"/>
</g>
</svg>
