<?xml version="1.0" encoding="utf-8"?>
<!-- Generator: Adobe Illustrator 24.2.1, SVG Export Plug-In . SVG Version: 6.00 Build 0)  -->
<svg version="1.1" id="레이어_1" xmlns="http://www.w3.org/2000/svg" xmlns:xlink="http://www.w3.org/1999/xlink" x="0px"
	 y="0px" viewBox="0 0 100 100" style="enable-background:new 0 0 100 100;" xml:space="preserve">
<style type="text/css">
	.st0{fill:#333333;}
</style>
<path class="st0" d="M65.4,45.7c-1,0-1.9,0.8-1.9,1.9v15c0,1-0.8,1.9-1.9,1.9H35.5c-1,0-1.9-0.8-1.9-1.9V36.3c0-1,0.8-1.9,1.9-1.9
	h15c1,0,1.9-0.8,1.9-1.9c0-1-0.8-1.9-1.9-1.9h-15c-3.1,0-5.6,2.5-5.6,5.6v26.2c0,3.1,2.5,5.6,5.6,5.6h26.2c3.1,0,5.6-2.5,5.6-5.6
	v-15C67.3,46.5,66.5,45.7,65.4,45.7z"/>
<path class="st0" d="M47.4,44c-0.1,0.1-0.2,0.3-0.3,0.5l-1.3,6.6c-0.1,0.3,0,0.6,0.3,0.8c0.2,0.2,0.4,0.3,0.7,0.3c0.1,0,0.1,0,0.2,0
	l6.6-1.3c0.2,0,0.4-0.1,0.5-0.3l14.8-14.8l-6.6-6.6L47.4,44z"/>
<path class="st0" d="M73.4,24.6c-1.8-1.8-4.8-1.8-6.6,0l-2.6,2.6l6.6,6.6l2.6-2.6c0.9-0.9,1.4-2.1,1.4-3.3
	C74.8,26.6,74.3,25.4,73.4,24.6z"/>
</svg>
