<svg width="17" height="16" viewBox="0 0 17 16" fill="none" xmlns="http://www.w3.org/2000/svg">
<path d="M14.8086 1.25H13.2812V0.5C13.2812 0.223875 13.0434 0 12.75 0C12.4566 0 12.2188 0.223875 12.2188 0.5V1.25H4.78125V0.5C4.78125 0.223875 4.54342 0 4.25 0C3.95658 0 3.71875 0.223875 3.71875 0.5V1.25H2.19141C0.983045 1.25 0 2.17522 0 3.3125V13.9375C0 15.0748 0.983045 16 2.19141 16H14.8086C16.017 16 17 15.0748 17 13.9375V3.3125C17 2.17522 16.017 1.25 14.8086 1.25ZM15.9375 13.9375C15.9375 14.5243 15.4321 15 14.8086 15H2.19141C1.56792 15 1.0625 14.5243 1.0625 13.9375V5.65625C1.0625 5.56997 1.13684 5.5 1.22852 5.5H15.7715C15.8632 5.5 15.9375 5.56997 15.9375 5.65625V13.9375Z" fill="#595959"/>
</svg>
