<?xml version="1.0" encoding="utf-8"?>
<!-- Generator: Adobe Illustrator 24.2.1, SVG Export Plug-In . SVG Version: 6.00 Build 0)  -->
<svg version="1.1" id="레이어_1" xmlns="http://www.w3.org/2000/svg" xmlns:xlink="http://www.w3.org/1999/xlink" x="0px"
	 y="0px" viewBox="0 0 100 100" style="enable-background:new 0 0 100 100;" xml:space="preserve">
<style type="text/css">
	.st0{fill:#595959;}
</style>
<path class="st0" d="M56.6,66.3v11.9c0,0.8,0.5,1.6,1.3,1.9c0.8,0.3,1.7,0.2,2.3-0.4l23.8-23.1c0.4-0.4,0.6-0.9,0.6-1.5
	s-0.2-1.1-0.6-1.5L60.1,30.6c-0.6-0.6-1.5-0.8-2.3-0.4c-0.8,0.3-1.3,1.1-1.3,1.9v11.9h-4c-13,0-24.9-7-31.2-18.4l-0.1-0.1
	c-0.4-0.7-1.1-1.1-1.8-1.1c-0.2,0-0.3,0-0.5,0.1c-0.9,0.2-1.6,1.1-1.6,2C17.5,48.2,35,65.9,56.6,66.3z"/>
</svg>
