<?xml version="1.0" encoding="utf-8"?>
<!-- Generator: Adobe Illustrator 24.2.1, SVG Export Plug-In . SVG Version: 6.00 Build 0)  -->
<svg version="1.1" id="Capa_1" xmlns="http://www.w3.org/2000/svg" xmlns:xlink="http://www.w3.org/1999/xlink" x="0px" y="0px"
	 viewBox="0 0 100 100" style="enable-background:new 0 0 100 100;" xml:space="preserve">
<style type="text/css">
	.st0{fill:#333333;}
</style>
<g>
	<g>
		<path class="st0" d="M64,35.3h-2.3v-4.6c0-0.7-0.6-1.3-1.4-1.4H39c-2.4,0-4.3,1.9-4.3,4.3v28.6c0,2.4,1.9,4.3,4.3,4.3h25
			c0.7,0,1.4-0.6,1.4-1.4V36.7C65.4,35.9,64.8,35.3,64,35.3z M50.4,49.7l-3.3-2.7c-0.4-0.3-1-0.3-1.4,0l-3.3,2.7V38h8V49.7z
			 M59,35.3H39c-0.9,0-1.6-0.7-1.6-1.6s0.7-1.6,1.6-1.6H59V35.3L59,35.3z"/>
	</g>
</g>
</svg>
