<?xml version="1.0" encoding="utf-8"?>
<!-- Generator: Adobe Illustrator 24.2.1, SVG Export Plug-In . SVG Version: 6.00 Build 0)  -->
<svg version="1.1" id="레이어_1" xmlns="http://www.w3.org/2000/svg" xmlns:xlink="http://www.w3.org/1999/xlink" x="0px"
	 y="0px" viewBox="0 0 100 100" style="enable-background:new 0 0 100 100;" xml:space="preserve">
<style type="text/css">
	.st0{fill:#333333;}
</style>
<path class="st0" d="M54.8,48.6l15.9-15.9c1-1,1-2.7,0-3.7c-1-1-2.7-1-3.7,0L51,44.8L35.1,28.9c-1-1-2.7-1-3.7,0c-1,1-1,2.7,0,3.7
	l15.9,15.9L31.3,64.5c-1,1-1,2.7,0,3.7c0.5,0.5,1.2,0.8,1.9,0.8c0.7,0,1.4-0.3,1.9-0.8L51,52.3l15.9,15.9c0.5,0.5,1.2,0.8,1.9,0.8
	s1.4-0.3,1.9-0.8c1-1,1-2.7,0-3.7L54.8,48.6z"/>
</svg>
