<?xml version="1.0" encoding="utf-8"?>
<!-- Generator: Adobe Illustrator 24.2.1, SVG Export Plug-In . SVG Version: 6.00 Build 0)  -->
<svg version="1.1" id="Capa_1" xmlns="http://www.w3.org/2000/svg" xmlns:xlink="http://www.w3.org/1999/xlink" x="0px" y="0px"
	 viewBox="0 0 100 100" style="enable-background:new 0 0 100 100;" xml:space="preserve">
<style type="text/css">
	.st0{fill:#333333;}
</style>
<g>
	<g>
		<g>
			<path class="st0" d="M73.5,46.5c-0.1-0.2-0.2-0.4-0.4-0.6l-5.3-5.3c-0.7-0.7-1.8-0.7-2.5,0c-0.7,0.7-0.7,1.8,0,2.5l2.3,2.3h-9.9
				c-1,0-1.8,0.8-1.8,1.8s0.8,1.8,1.8,1.8h9.9l-2.3,2.3c-0.7,0.7-0.7,1.8,0,2.5c0.3,0.3,0.8,0.5,1.2,0.5s0.9-0.2,1.2-0.5l5.3-5.3
				c0.2-0.2,0.3-0.4,0.4-0.6C73.7,47.4,73.7,46.9,73.5,46.5z"/>
			<path class="st0" d="M61.3,52.5c-1,0-1.8,0.8-1.8,1.8v8.8h-7.1V34.8c0-0.8-0.5-1.5-1.3-1.7l-6.1-1.8h14.5v8.8
				c0,1,0.8,1.8,1.8,1.8s1.8-0.8,1.8-1.8V29.5c0-1-0.8-1.8-1.8-1.8H33c-0.1,0-0.1,0-0.2,0c-0.1,0-0.2,0-0.2,0
				c-0.2,0-0.4,0.1-0.5,0.2c0,0-0.1,0-0.1,0.1c0,0,0,0,0,0c-0.2,0.2-0.4,0.3-0.5,0.6c0,0,0,0.1,0,0.1c-0.1,0.1-0.1,0.3-0.1,0.4
				c0,0.1,0,0.1,0,0.2c0,0,0,0.1,0,0.1v35.3c0,0.8,0.6,1.6,1.4,1.7l17.7,3.5c0.1,0,0.2,0,0.3,0c0.4,0,0.8-0.1,1.1-0.4
				c0.4-0.3,0.6-0.8,0.6-1.4v-1.8h8.8c1,0,1.8-0.8,1.8-1.8V54.2C63.1,53.3,62.3,52.5,61.3,52.5z"/>
		</g>
	</g>
</g>
</svg>
