<?xml version="1.0" encoding="utf-8"?>
<!-- Generator: Adobe Illustrator 24.2.1, SVG Export Plug-In . SVG Version: 6.00 Build 0)  -->
<svg version="1.1" id="레이어_1" xmlns="http://www.w3.org/2000/svg" xmlns:xlink="http://www.w3.org/1999/xlink" x="0px"
	 y="0px" viewBox="0 0 100 100" style="enable-background:new 0 0 100 100;" xml:space="preserve">
<style type="text/css">
	.st0{fill:#333333;}
</style>
<path class="st0" d="M50,28.7c-7.9,0-14.4,6.4-14.4,14.4c0,10,14.4,27,14.4,27s14.4-17.5,14.4-27C64.4,35.2,57.9,28.7,50,28.7z
	 M54.3,47.3c-1.2,1.2-2.8,1.8-4.3,1.8c-1.6,0-3.1-0.6-4.3-1.8c-2.4-2.4-2.4-6.3,0-8.7c1.2-1.2,2.7-1.8,4.3-1.8s3.2,0.6,4.3,1.8
	C56.7,41,56.7,44.9,54.3,47.3z"/>
</svg>
