<?xml version="1.0" encoding="utf-8"?>
<!-- Generator: Adobe Illustrator 24.2.1, SVG Export Plug-In . SVG Version: 6.00 Build 0)  -->
<svg version="1.1" id="Capa_1" xmlns="http://www.w3.org/2000/svg" xmlns:xlink="http://www.w3.org/1999/xlink" x="0px" y="0px"
	 viewBox="0 0 100 100" style="enable-background:new 0 0 100 100;" xml:space="preserve">
<style type="text/css">
	.st0{fill:#333333;}
</style>
<g>
	<g>
		<path class="st0" d="M64.5,57.4c-1.7-1.7-3.8-1.7-5.5,0c-1.3,1.3-2.6,2.6-3.8,3.9c-0.3,0.4-0.6,0.4-1.1,0.2
			c-0.8-0.5-1.7-0.8-2.5-1.3c-3.7-2.3-6.9-5.4-9.6-8.8c-1.4-1.7-2.6-3.5-3.4-5.5c-0.2-0.4-0.1-0.7,0.2-1c1.3-1.2,2.5-2.5,3.8-3.8
			c1.8-1.8,1.8-3.9,0-5.6c-1-1-2-2-3-3c-1-1-2.1-2.1-3.1-3.1c-1.7-1.7-3.8-1.7-5.5,0c-1.3,1.3-2.5,2.6-3.9,3.8
			c-1.2,1.2-1.8,2.6-2,4.2c-0.2,2.7,0.5,5.2,1.4,7.7c1.9,5.1,4.8,9.7,8.3,13.9c4.7,5.6,10.4,10.1,17,13.3c3,1.4,6.1,2.6,9.4,2.7
			c2.3,0.1,4.3-0.5,5.9-2.3c1.1-1.2,2.3-2.4,3.5-3.5c1.7-1.8,1.7-3.9,0-5.6C68.6,61.5,66.6,59.4,64.5,57.4z"/>
		<path class="st0" d="M62.5,48.8l4-0.7c-0.6-3.7-2.4-7-5-9.6c-2.8-2.8-6.3-4.5-10.2-5.1l-0.6,4c3,0.4,5.7,1.8,7.9,3.9
			C60.6,43.4,62,45.9,62.5,48.8z"/>
		<path class="st0" d="M68.7,31.4c-4.6-4.6-10.4-7.5-16.9-8.4l-0.6,4c5.6,0.8,10.6,3.3,14.6,7.3c3.8,3.8,6.3,8.5,7.1,13.8l4-0.7
			C75.9,41.3,73.1,35.8,68.7,31.4z"/>
	</g>
</g>
</svg>
