<?xml version="1.0" encoding="utf-8"?>
<!-- Generator: Adobe Illustrator 24.2.1, SVG Export Plug-In . SVG Version: 6.00 Build 0)  -->
<svg version="1.1" id="Capa_1" xmlns="http://www.w3.org/2000/svg" xmlns:xlink="http://www.w3.org/1999/xlink" x="0px" y="0px"
	 viewBox="0 0 100 100" style="enable-background:new 0 0 100 100;" xml:space="preserve">
<style type="text/css">
	.st0{fill:#333333;}
</style>
<g>
	<path class="st0" d="M55.2,25.9c-0.6-0.3-1.3-0.2-1.8,0.2L36.7,39.4h-7.9c-1.9,0-3.5,1.5-3.5,3.5v13.6c0,1.9,1.5,3.5,3.5,3.5h7.9
		l16.6,13.3c0.3,0.3,0.7,0.4,1,0.4c0.3,0,0.5-0.1,0.7-0.2c0.6-0.3,0.9-0.8,0.9-1.6V27.4C56.1,26.7,55.8,26.2,55.2,25.9z"/>
	<path class="st0" d="M64.8,37.6c-0.7-0.7-1.8-0.7-2.4,0c-0.7,0.7-0.7,1.8,0,2.4c2.6,2.5,4,6,4,9.7s-1.4,7.1-4,9.6
		c-0.7,0.7-0.7,1.8,0,2.4c0.4,0.4,0.7,0.5,1.2,0.5s0.8-0.2,1.2-0.5c3.3-3.2,5-7.5,5-12.1S68.1,40.7,64.8,37.6z"/>
	<path class="st0" d="M69.7,32.7c-0.7-0.7-1.8-0.7-2.4,0s-0.7,1.8,0,2.4c3.9,3.8,6.1,9.1,6.1,14.5s-2.1,10.6-6.1,14.5
		c-0.7,0.7-0.7,1.8,0,2.4c0.4,0.4,0.7,0.5,1.2,0.5s0.8-0.2,1.2-0.5c4.6-4.5,7-10.5,7-16.9S74.1,37.3,69.7,32.7z"/>
</g>
</svg>
